<svg width="100%" viewBox="0 0 680 680" role="img" style="" xmlns="http://www.w3.org/2000/svg">
  <title style="fill:rgb(0, 0, 0);stroke:none;color:rgb(0, 0, 0);stroke-width:1px;stroke-linecap:butt;stroke-linejoin:miter;opacity:1;font-family:&quot;Anthropic Sans&quot;, -apple-system, &quot;system-ui&quot;, &quot;Segoe UI&quot;, sans-serif;font-size:16px;font-weight:400;text-anchor:start;dominant-baseline:auto">Lucioles — logo trois ✦ v6</title>
  <desc style="fill:rgb(0, 0, 0);stroke:none;color:rgb(0, 0, 0);stroke-width:1px;stroke-linecap:butt;stroke-linejoin:miter;opacity:1;font-family:&quot;Anthropic Sans&quot;, -apple-system, &quot;system-ui&quot;, &quot;Segoe UI&quot;, sans-serif;font-size:16px;font-weight:400;text-anchor:start;dominant-baseline:auto">Logo Lucioles : trois ✦ sur fond crème</desc>

  <g transform="translate(340, 340)" style="fill:rgb(0, 0, 0);stroke:none;color:rgb(0, 0, 0);stroke-width:1px;stroke-linecap:butt;stroke-linejoin:miter;opacity:1;font-family:&quot;Anthropic Sans&quot;, -apple-system, &quot;system-ui&quot;, &quot;Segoe UI&quot;, sans-serif;font-size:16px;font-weight:400;text-anchor:start;dominant-baseline:auto">
    <circle cx="0" cy="0" r="220" fill="#fdf6e3" style="fill:rgb(253, 246, 227);stroke:none;color:rgb(0, 0, 0);stroke-width:1px;stroke-linecap:butt;stroke-linejoin:miter;opacity:1;font-family:&quot;Anthropic Sans&quot;, -apple-system, &quot;system-ui&quot;, &quot;Segoe UI&quot;, sans-serif;font-size:16px;font-weight:400;text-anchor:start;dominant-baseline:auto"/>

    <!-- ✦ central grand -->
    <path d="M0,-110 C12,-30 30,-12 110,0 C30,12 12,30 0,110 C-12,30 -30,12 -110,0 C-30,-12 -12,-30 0,-110 Z" fill="#c8860a" style="fill:rgb(200, 134, 10);stroke:none;color:rgb(0, 0, 0);stroke-width:1px;stroke-linecap:butt;stroke-linejoin:miter;opacity:1;font-family:&quot;Anthropic Sans&quot;, -apple-system, &quot;system-ui&quot;, &quot;Segoe UI&quot;, sans-serif;font-size:16px;font-weight:400;text-anchor:start;dominant-baseline:auto"/>

    <!-- ✦ doré moyen — axe ~10°, à droite -->
    <path d="M148,-60 C151,-46 155,-42 168,-40 C155,-38 151,-34 148,-20 C145,-34 141,-38 128,-40 C141,-42 145,-46 148,-60 Z" fill="#c8860a" opacity="0.65" style="fill:rgb(200, 134, 10);stroke:none;color:rgb(0, 0, 0);stroke-width:1px;stroke-linecap:butt;stroke-linejoin:miter;opacity:0.65;font-family:&quot;Anthropic Sans&quot;, -apple-system, &quot;system-ui&quot;, &quot;Segoe UI&quot;, sans-serif;font-size:16px;font-weight:400;text-anchor:start;dominant-baseline:auto"/>

    <!-- ✦ vert sauge — axe ~40°, plus haut -->
    <path d="M92,-130 C96,-112 102,-106 120,-104 C102,-102 96,-96 92,-78 C88,-96 82,-102 64,-104 C82,-106 88,-112 92,-130 Z" fill="#5a8a5e" opacity="0.75" style="fill:rgb(90, 138, 94);stroke:none;color:rgb(0, 0, 0);stroke-width:1px;stroke-linecap:butt;stroke-linejoin:miter;opacity:0.75;font-family:&quot;Anthropic Sans&quot;, -apple-system, &quot;system-ui&quot;, &quot;Segoe UI&quot;, sans-serif;font-size:16px;font-weight:400;text-anchor:start;dominant-baseline:auto"/>

  </g>

</svg>